<svg width="170" height="129" viewBox="0 0 170 129" fill="none" xmlns="http://www.w3.org/2000/svg">
<path opacity="0.25" d="M136.068 123.638C135.868 124.153 136.123 124.732 136.638 124.932L145.027 128.191C145.542 128.391 146.121 128.136 146.321 127.621C146.521 127.106 146.266 126.527 145.751 126.327L138.294 123.43L141.191 115.973C141.391 115.458 141.136 114.879 140.621 114.679C140.106 114.479 139.527 114.734 139.327 115.249L136.068 123.638ZM137 0.999998C136.597 1.91517 136.597 1.91498 136.596 1.91484C136.596 1.91487 136.596 1.91478 136.596 1.91483C136.597 1.91493 136.597 1.91525 136.598 1.91578C136.601 1.91685 136.605 1.91877 136.611 1.92157C136.624 1.92716 136.644 1.93624 136.671 1.94887C136.725 1.97414 136.809 2.01362 136.92 2.06791C137.141 2.17649 137.472 2.34423 137.896 2.57578C138.744 3.03894 139.964 3.757 141.434 4.76697C144.373 6.78726 148.303 9.97266 152.237 14.6188C160.091 23.8962 168 39.0447 168 62.5L169 62.5L170 62.5C170 38.549 161.909 22.9475 153.763 13.3265C149.697 8.52343 145.627 5.22251 142.567 3.11877C141.036 2.06673 139.757 1.31335 138.855 0.820577C138.403 0.57416 138.046 0.392815 137.799 0.271794C137.676 0.211281 137.58 0.16584 137.513 0.134879C137.48 0.119399 137.454 0.107537 137.435 0.09922C137.426 0.0950615 137.419 0.0917892 137.413 0.0893937C137.411 0.088196 137.409 0.0872174 137.407 0.0864569C137.406 0.0860768 137.405 0.0856691 137.405 0.0854795C137.404 0.0851268 137.403 0.0848283 137 0.999998ZM169 62.5L168 62.5C168 85.9553 160.091 101.104 152.237 110.381C148.303 115.027 144.373 118.213 141.434 120.233C139.964 121.243 138.744 121.961 137.896 122.424C137.472 122.656 137.141 122.824 136.92 122.932C136.809 122.986 136.725 123.026 136.671 123.051C136.644 123.064 136.624 123.073 136.611 123.078C136.605 123.081 136.601 123.083 136.598 123.084C136.597 123.085 136.597 123.085 136.596 123.085C136.596 123.085 136.596 123.085 136.596 123.085C136.597 123.085 136.597 123.085 137 124C137.403 124.915 137.404 124.915 137.405 124.915C137.405 124.914 137.406 124.914 137.407 124.914C137.409 124.913 137.411 124.912 137.413 124.911C137.419 124.908 137.426 124.905 137.435 124.901C137.454 124.892 137.48 124.881 137.513 124.865C137.58 124.834 137.676 124.789 137.799 124.728C138.046 124.607 138.403 124.426 138.855 124.179C139.757 123.687 141.036 122.933 142.567 121.881C145.627 119.777 149.697 116.477 153.763 111.673C161.909 102.052 170 86.451 170 62.5L169 62.5Z" fill="#394675"/>
</svg>
