<svg width="245" height="219" viewBox="0 0 245 219" fill="none" xmlns="http://www.w3.org/2000/svg">
<g clip-path="url(#clip0_1902_3571)">
<path d="M210.945 199.093H42.3105C38.9799 199.089 35.7868 197.762 33.4318 195.404C31.0767 193.046 29.7521 189.849 29.7483 186.514V39.0696C29.7522 35.7349 31.0769 32.5379 33.432 30.18C35.787 27.822 38.98 26.4956 42.3105 26.4917H210.945C214.275 26.4954 217.469 27.8218 219.824 30.1798C222.179 32.5378 223.504 35.7349 223.508 39.0696V186.514C223.504 189.849 222.179 193.046 219.824 195.404C217.469 197.762 214.276 199.089 210.945 199.093Z" fill="white"/>
<path d="M171.825 66.4014H87.5569C85.2516 66.4014 83.3827 68.2727 83.3827 70.5809V154.954C83.3827 157.263 85.2516 159.134 87.5569 159.134H171.825C174.13 159.134 175.999 157.263 175.999 154.954V70.5809C175.999 68.2727 174.13 66.4014 171.825 66.4014Z" fill="#394675"/>
<path d="M210.945 199.489H42.3104C38.8749 199.485 35.5811 198.117 33.1518 195.684C30.7225 193.252 29.3561 189.954 29.3523 186.514V39.0697C29.3562 35.6298 30.7227 32.3321 33.152 29.8998C35.5813 27.4675 38.8749 26.0993 42.3104 26.0955H210.945C214.38 26.0993 217.674 27.4674 220.104 29.8998C222.533 32.3321 223.899 35.63 223.903 39.0699V186.514C223.899 189.954 222.533 193.252 220.104 195.684C217.674 198.117 214.381 199.485 210.945 199.489ZM42.3104 26.888C39.0848 26.8917 35.9924 28.1763 33.7116 30.46C31.4307 32.7437 30.1477 35.84 30.1441 39.0697V186.514C30.1477 189.744 31.4306 192.84 33.7114 195.124C35.9923 197.408 39.0848 198.693 42.3104 198.696H210.945C214.171 198.693 217.263 197.408 219.545 195.124C221.826 192.841 223.109 189.744 223.112 186.514V39.0697C223.109 35.8399 221.826 32.7436 219.545 30.4599C217.264 28.1762 214.171 26.8916 210.945 26.888H42.3104Z" fill="#090814"/>
<path d="M10.8116 146.632C9.69041 146.629 8.6055 146.234 7.74288 145.517C6.88026 144.8 6.29367 143.805 6.0837 142.702L0.0868693 111.143C-0.15167 109.913 0.0987962 108.637 0.784977 107.589C1.47116 106.54 2.53889 105.801 3.76099 105.529L30.6249 99.4362C31.2505 99.2942 31.8982 99.2785 32.5299 99.3902C33.1617 99.5018 33.7648 99.7384 34.3041 100.086C34.8434 100.434 35.308 100.886 35.6708 101.416C36.0335 101.946 36.2871 102.543 36.4167 103.172L42.9525 134.874C43.2054 136.12 42.959 137.416 42.2662 138.482C41.5735 139.548 40.49 140.299 39.2494 140.573L11.8455 146.521C11.5058 146.595 11.1592 146.632 10.8116 146.632Z" fill="#F2F2F2"/>
<path d="M8.74685 118.204C8.40156 118.204 8.06881 118.074 7.81381 117.841C7.55881 117.608 7.39992 117.288 7.36829 116.944C7.33665 116.6 7.43454 116.256 7.64278 115.98C7.85102 115.704 8.1546 115.516 8.49405 115.453L30.2122 111.391C30.391 111.357 30.5747 111.359 30.7527 111.397C30.9307 111.434 31.0995 111.507 31.2496 111.61C31.3997 111.713 31.5281 111.844 31.6274 111.997C31.7267 112.15 31.795 112.32 31.8284 112.499C31.8618 112.678 31.8596 112.862 31.822 113.041C31.7845 113.219 31.7122 113.388 31.6094 113.538C31.5065 113.688 31.3751 113.817 31.2227 113.916C31.0702 114.016 30.8997 114.084 30.7209 114.118L9.00279 118.18C8.91841 118.196 8.83273 118.204 8.74685 118.204Z" fill="#394675"/>
<path d="M10.7265 126.527C10.387 126.527 10.0595 126.402 9.80594 126.176C9.55242 125.95 9.39059 125.638 9.35117 125.301C9.31175 124.963 9.39749 124.623 9.5921 124.344C9.78671 124.066 10.0767 123.869 10.4069 123.79L30.8511 118.916C31.0285 118.872 31.2128 118.865 31.3934 118.893C31.5739 118.921 31.747 118.984 31.9029 119.08C32.0588 119.175 32.1943 119.3 32.3016 119.448C32.409 119.596 32.486 119.764 32.5283 119.942C32.5706 120.12 32.5774 120.305 32.5482 120.485C32.519 120.666 32.4544 120.839 32.3582 120.994C32.2619 121.15 32.1359 121.285 31.9874 121.391C31.8389 121.498 31.6709 121.574 31.4929 121.615L11.0485 126.489C10.943 126.514 10.8349 126.527 10.7265 126.527Z" fill="#394675"/>
<path d="M12.1113 134.58C11.7691 134.579 11.4392 134.452 11.1852 134.223C10.9312 133.993 10.771 133.677 10.7355 133.337C10.7001 132.996 10.7918 132.654 10.9931 132.377C11.1943 132.1 11.4909 131.907 11.8257 131.836L25.7734 128.878C26.1311 128.807 26.5027 128.879 26.8074 129.08C27.1121 129.281 27.3255 129.594 27.401 129.951C27.4766 130.308 27.4084 130.681 27.2111 130.988C27.0138 131.296 26.7034 131.513 26.3473 131.592L12.4001 134.549C12.3052 134.57 12.2084 134.58 12.1113 134.58Z" fill="#394675"/>
<path d="M230.99 45.6145C230.74 45.6143 230.491 45.5947 230.244 45.5559L202.543 41.2046C201.907 41.1045 201.298 40.8779 200.75 40.5383C200.203 40.1987 199.729 39.7529 199.356 39.2271C198.984 38.7013 198.72 38.1062 198.581 37.4768C198.441 36.8474 198.429 36.1964 198.545 35.5622L204.324 3.96162C204.545 2.72797 205.239 1.62945 206.256 0.899428C207.274 0.169401 208.536 -0.134615 209.774 0.0519607L237.024 4.07472C237.658 4.16859 238.268 4.38811 238.816 4.72046C239.365 5.05281 239.842 5.49132 240.22 6.01038C240.597 6.52944 240.868 7.11864 241.015 7.74354C241.163 8.36844 241.185 9.01652 241.079 9.64991L235.751 41.5792C235.559 42.7056 234.977 43.7281 234.106 44.4664C233.234 45.2047 232.131 45.6112 230.99 45.6145Z" fill="#F2F2F2"/>
<path d="M232.079 17.8258C231.993 17.8257 231.907 17.8177 231.823 17.8017L210.104 13.7453C209.925 13.7119 209.754 13.6435 209.602 13.5442C209.449 13.4448 209.318 13.3163 209.215 13.1661C209.007 12.8627 208.928 12.489 208.996 12.1274C209.063 11.7658 209.271 11.4457 209.574 11.2377C209.877 11.0297 210.25 10.9507 210.611 11.0181L232.331 15.0746C232.671 15.138 232.974 15.326 233.182 15.6017C233.391 15.8775 233.489 16.2211 233.457 16.5654C233.425 16.9097 233.266 17.2297 233.012 17.4628C232.757 17.696 232.424 17.8254 232.079 17.8258Z" fill="#394675"/>
<path d="M230.03 25.0856C229.967 25.0857 229.903 25.0814 229.841 25.0728L209.017 22.2333C208.653 22.1836 208.323 21.9912 208.101 21.6983C207.879 21.4054 207.782 21.0361 207.831 20.6716C207.881 20.3071 208.073 19.9773 208.366 19.7546C208.658 19.532 209.027 19.4348 209.391 19.4845L230.215 22.324C230.563 22.3711 230.88 22.5489 231.102 22.8214C231.324 23.0938 231.435 23.4405 231.411 23.7914C231.388 24.1423 231.232 24.4712 230.975 24.7114C230.719 24.9517 230.381 25.0854 230.03 25.0856Z" fill="#394675"/>
<path d="M221.67 32.5378C221.595 32.5376 221.521 32.5315 221.447 32.5195L207.373 30.2391C207.01 30.1802 206.686 29.9795 206.471 29.681C206.256 29.3826 206.168 29.0109 206.227 28.6478C206.286 28.2846 206.487 27.9597 206.785 27.7446C207.083 27.5294 207.454 27.4416 207.817 27.5005L221.891 29.7809C222.234 29.8365 222.545 30.0197 222.76 30.2939C222.975 30.5682 223.078 30.9134 223.051 31.261C223.023 31.6085 222.866 31.9328 222.61 32.1694C222.354 32.406 222.019 32.5376 221.671 32.5378H221.67Z" fill="#394675"/>
<path d="M146.517 109.3C146.517 110.527 146.407 111.752 146.188 112.959C145.794 114.501 145.197 115.984 144.412 117.369C142.909 120.042 141.298 121.04 139.974 123.657C139.746 123.833 139.512 123.991 139.274 124.147C138.798 124.454 138.746 125.959 138.24 126.219C138.237 126.222 138.233 126.222 138.23 126.226C138.074 126.491 137.985 126.789 137.969 127.096V127.103C137.714 128.598 137.493 131.64 137.239 133.439C137.204 133.656 137.173 133.857 137.139 134.033C137.052 134.509 136.963 134.813 136.863 134.851C135.632 135.327 135.108 134.674 133.758 134.851C133.034 134.948 129.338 135.541 128.586 135.541C126.451 135.541 125.296 134.813 123.568 134.033C123.448 133.98 123.327 133.926 123.199 133.87C123.152 133.853 123.113 133.832 123.069 133.815C122.573 133.605 122.104 128.294 121.638 126.285C121.637 126.283 121.636 126.282 121.635 126.28C121.634 126.278 121.634 126.276 121.634 126.274C121.538 125.856 121.441 125.584 121.345 125.528L121.272 125.487C120.965 125.311 120.666 125.118 120.372 124.917C118.595 121.955 115.164 119.136 113.47 114.528C112.985 112.828 112.733 111.069 112.722 109.3C112.714 107.073 113.144 104.866 113.99 102.806C114.835 100.745 116.078 98.8725 117.648 97.2945C119.218 95.7164 121.083 94.4643 123.138 93.6099C125.192 92.7555 127.395 92.3157 129.619 92.3157C131.844 92.3157 134.047 92.7555 136.101 93.6099C138.155 94.4643 140.021 95.7164 141.591 97.2945C143.161 98.8725 144.404 100.745 145.249 102.806C146.095 104.866 146.525 107.073 146.517 109.3Z" fill="#E6E6E6"/>
<path d="M146.189 112.961C145.794 114.503 145.197 115.986 144.413 117.37C142.91 120.043 141.299 121.04 139.974 123.657C139.094 125.401 138.342 127.863 137.83 132.014C137.798 132.259 137.864 132.539 137.83 132.78C137.751 133.315 137.847 133.219 137.522 133.702C137.374 133.785 137.284 133.668 137.235 133.441C137.159 132.866 137.152 132.285 137.215 131.708C137.308 130.152 137.559 128.61 137.966 127.105V127.098C138.049 126.798 138.139 126.508 138.227 126.229C139.824 121.36 142.769 119.154 144.103 116.606C151.113 103.25 138.158 88.3419 123.889 93.5271C123.124 93.8069 123.165 93.9691 123.124 93.9897C122.051 94.4557 121.179 94.6597 120.138 95.3674C113.816 99.6744 111.546 108.199 114.398 115.222C115.943 119.023 119.178 121.167 121.271 125.488C121.396 125.738 121.517 126.001 121.633 126.275C121.633 126.277 121.633 126.279 121.633 126.28C121.634 126.282 121.635 126.284 121.636 126.285C122.62 128.696 123.15 131.267 123.199 133.871C123.202 133.918 123.206 133.961 123.206 134.005C123.33 134.016 123.451 134.023 123.568 134.033C125.399 134.192 126.585 134.485 127.199 134.167L127.875 134.237C128.099 134.55 131.867 134.167 132.468 134.16H132.623C134.129 134.199 135.636 134.156 137.137 134.032C137.213 134.025 137.292 134.015 137.368 134.005C137.468 134.028 137.556 134.089 137.613 134.175C137.67 134.261 137.692 134.366 137.675 134.467C137.722 134.902 137.002 136.162 136.758 136.304C136.051 136.719 124.533 136.929 123.433 136.153C123.113 135.928 122.878 135.601 122.767 135.225C122.656 134.849 122.676 134.447 122.823 134.084C122.802 133.987 122.379 133.711 122.361 133.621C122.154 132.446 122.399 129.468 120.985 126.108C120.81 125.697 120.605 125.298 120.371 124.917C118.595 121.955 115.164 119.137 113.471 114.526C112.582 112.051 112.271 109.405 112.562 106.791C113.172 100.299 118.764 93.9127 125.04 92.2996C138.174 88.9234 149.265 100.849 146.189 112.961Z" fill="#010001"/>
<path d="M136.923 136.662C138.016 137.703 137.432 138.055 136.923 139.269C136.28 139.124 125.285 139.828 123.753 139.269C123.508 139.17 123.292 139.009 123.126 138.804C122.96 138.598 122.849 138.353 122.803 138.093C122.757 137.832 122.778 137.564 122.864 137.314C122.95 137.064 123.097 136.84 123.293 136.662C127.822 137.169 132.394 137.169 136.923 136.662Z" fill="#010001"/>
<path d="M137.535 139.729C137.965 140.687 137.142 141.274 136.769 142.029L136.004 142.182L123.906 142.029C123.177 141.889 122.715 140.867 122.527 140.189C122.514 140.098 122.529 140.005 122.57 139.923C122.611 139.841 122.677 139.773 122.757 139.729L123.752 139.422C127.751 139.746 131.764 139.849 135.774 139.729C136.042 139.573 136.345 139.491 136.655 139.491C136.964 139.491 137.268 139.573 137.535 139.729Z" fill="#010001"/>
<path d="M127.609 127.254H127.292V122.061L121.445 109.664L121.732 109.528L127.609 121.988V127.254Z" fill="#0F0F10"/>
<path d="M129.531 83.3116C130.18 82.8699 130.19 88.0504 129.992 88.2186C129.235 88.8562 129.314 83.4605 129.531 83.3116Z" fill="#F2F2F2"/>
<path d="M124.323 83.7721C124.834 83.443 126.009 88.3479 125.932 88.6018C125.5 90.0463 124.085 83.9263 124.323 83.7721Z" fill="#F2F2F2"/>
<path d="M134.737 83.7722C135.345 83.6115 134.322 88.3808 134.202 88.6023C133.054 90.6937 134.408 83.8591 134.737 83.7722Z" fill="#F2F2F2"/>
<path d="M132.552 127.262L132.291 121.492L132.297 121.469L135.4 108.694L135.709 108.77L132.61 121.523L132.868 127.248L132.552 127.262Z" fill="#0F0F10"/>
<path d="M211.772 219C210.949 218.997 210.153 218.709 209.518 218.185C208.883 217.661 208.449 216.933 208.289 216.124L202.08 184.058C201.982 183.55 201.996 183.027 202.121 182.525C202.246 182.024 202.478 181.555 202.803 181.153C203.127 180.75 203.535 180.423 203.999 180.195C204.462 179.967 204.97 179.843 205.486 179.832L235.492 179.185C236.332 179.162 237.152 179.441 237.805 179.971C238.458 180.501 238.901 181.247 239.053 182.074L244.938 213.171C245.032 213.669 245.019 214.181 244.899 214.672C244.78 215.164 244.556 215.625 244.244 216.023C243.933 216.422 243.539 216.749 243.091 216.983C242.642 217.217 242.149 217.352 241.644 217.38L211.964 218.994C211.9 218.998 211.836 219 211.772 219Z" fill="#F2F2F2"/>
<path d="M230.952 189.341C230.58 189.128 230.139 189.07 229.725 189.178C229.311 189.287 228.955 189.554 228.736 189.922L223.346 200.614C221.883 198.34 220.038 196.336 217.893 194.692C217.2 194.156 216.079 194.588 215.677 195.274C215.188 196.111 215.564 196.956 216.258 197.492C218.748 199.462 220.72 202.011 222.002 204.917C222.498 206.011 224.282 205.942 224.799 204.917L231.533 191.56C231.739 191.186 231.794 190.747 231.686 190.334C231.578 189.921 231.315 189.566 230.952 189.341L230.952 189.341Z" fill="#394675"/>
</g>
<defs>
<clipPath id="clip0_1902_3571">
<rect width="245" height="219" fill="white"/>
</clipPath>
</defs>
</svg>
